<?xml version="1.0" standalone="no"?>
<!DOCTYPE svg PUBLIC "-//W3C//DTD SVG 20010904//EN"
 "http://www.w3.org/TR/2001/REC-SVG-20010904/DTD/svg10.dtd">
<svg version="1.0" xmlns="http://www.w3.org/2000/svg"
 width="566.000000pt" height="441.000000pt" viewBox="0 0 566.000000 441.000000"
 preserveAspectRatio="xMidYMid meet">

<g transform="translate(0.000000,441.000000) scale(0.100000,-0.100000)"
fill="#000000" stroke="none">
<path d="M3441 4074 c-4 -327 463 -646 1308 -895 74 -21 139 -39 145 -38 12 0
20 -3 -279 114 -652 255 -1035 528 -1154 821 l-20 49 0 -51z"/>
<path d="M3353 3895 c3 -22 11 -53 18 -70 l13 -30 4 38 c2 27 -3 48 -18 70
l-22 32 5 -40z"/>
<path d="M1200 3768 c-112 -54 -225 -188 -280 -332 l-10 -28 34 30 c53 46 97
57 233 57 66 0 116 3 110 7 -8 5 -7 8 3 8 9 0 11 3 5 8 -7 4 -11 59 -10 141 0
81 -4 136 -10 137 -5 2 -39 -11 -75 -28z"/>
<path d="M3266 3756 c11 -35 44 -84 72 -107 45 -35 93 -50 177 -56 92 -6 91 2
-3 37 -35 13 -106 51 -158 85 -76 50 -93 59 -88 41z"/>
<path d="M3190 3621 c0 -4 11 -18 25 -31 26 -25 32 -21 15 9 -10 20 -40 36
-40 22z"/>
<path d="M1118 3314 c-85 -20 -171 -68 -230 -127 -56 -55 -118 -162 -138 -235
-6 -24 -13 -51 -16 -60 -3 -9 2 -3 11 13 22 39 101 121 140 145 120 73 342 82
590 23 61 -14 309 -95 552 -179 882 -305 1053 -356 1218 -358 86 -1 233 19
222 30 -2 2 -51 13 -108 23 -175 33 -249 52 -364 93 -138 51 -564 233 -970
415 -315 142 -357 159 -455 188 -152 45 -339 57 -452 29z"/>
<path d="M3880 3230 c-13 -9 -12 -12 4 -25 35 -27 95 -13 83 19 -7 18 -63 22
-87 6z"/>
<path d="M4423 3125 c-216 -59 -355 -177 -439 -375 -20 -47 -64 -197 -99 -335
-67 -264 -108 -391 -157 -490 -122 -242 -340 -429 -628 -536 -94 -35 -76 -37
27 -3 287 94 501 275 661 559 62 110 112 223 204 465 128 337 208 484 327 600
36 36 93 80 126 97 65 35 59 40 -22 18z"/>
<path d="M1042 2875 c-155 -74 -273 -237 -297 -410 l-7 -50 26 51 c52 101 161
183 294 220 34 10 59 20 55 23 -11 8 -10 111 1 111 5 0 1 10 -10 22 -14 15
-15 20 -4 16 11 -4 15 2 15 23 0 16 0 29 0 29 0 0 -33 -16 -73 -35z"/>
<path d="M3565 2860 c-9 -15 -94 -56 -134 -65 -19 -4 -53 -8 -75 -8 -23 0 -30
-2 -17 -5 19 -3 21 -6 10 -13 -12 -7 -12 -9 0 -9 11 0 11 -3 0 -17 -13 -15
-10 -16 36 -10 28 4 70 17 94 30 43 22 110 91 99 103 -3 3 -9 0 -13 -6z"/>
<path d="M1540 2549 c-286 -25 -463 -192 -485 -459 -6 -64 -6 -64 8 -28 50
130 141 208 297 253 145 42 346 44 735 6 929 -92 1081 -91 1255 4 l45 25 -70
-5 c-218 -15 -256 -15 -360 -1 -199 27 -365 55 -725 121 -501 93 -542 98 -700
84z"/>
<path d="M3177 2436 c3 -14 9 -23 13 -21 5 3 12 0 16 -6 4 -8 3 -9 -4 -5 -7 4
-12 2 -12 -5 0 -16 63 -7 151 22 38 12 68 23 66 25 -1 1 -54 5 -118 9 l-117 7
5 -26z"/>
<path d="M3040 1998 c-58 -49 -150 -117 -205 -150 -109 -66 -463 -260 -700
-383 -198 -103 -268 -149 -359 -235 -82 -79 -140 -162 -176 -255 -32 -83 -33
-253 -2 -335 l21 -55 0 71 c1 87 27 166 82 251 59 91 219 239 351 326 62 41
246 161 408 267 478 311 579 392 654 519 20 35 36 65 34 66 -2 1 -50 -38 -108
-87z"/>
<path d="M3118 1926 c-32 -36 -58 -69 -58 -74 0 -6 -6 -13 -12 -16 -7 -4 -2
-4 12 -2 l25 5 -24 -20 c-13 -10 -18 -19 -12 -19 6 0 11 -5 11 -11 0 -5 -6 -7
-12 -3 -7 4 -10 4 -6 -1 4 -4 2 -15 -5 -24 -10 -14 -10 -14 5 -3 26 21 85 112
113 175 13 31 24 57 22 57 -1 0 -28 -29 -59 -64z"/>
<path d="M1950 1014 c-49 -42 -120 -149 -154 -232 -28 -70 -30 -87 -31 -192 0
-102 3 -124 29 -193 28 -78 53 -115 35 -55 -31 108 7 262 99 401 14 21 27 46
28 55 1 10 5 25 9 35 4 9 3 17 -2 17 -10 0 -9 113 1 129 4 5 2 13 -4 16 -6 4
-1 14 12 25 13 11 20 19 16 20 -3 0 -20 -12 -38 -26z"/>
</g>
</svg>
